<?xml version="1.0" encoding="UTF-8" standalone="no"?>
<svg width="100px" height="100px" viewBox="0 0 100 100" version="1.1" xmlns="http://www.w3.org/2000/svg" xmlns:xlink="http://www.w3.org/1999/xlink">
    <g stroke="none" stroke-width="1" fill="none" fill-rule="evenodd">
        <path d="M50,0 C77.6142375,0 100,22.3857625 100,50 C100,77.6142375 77.6142375,100 50,100 C22.3857625,100 0,77.6142375 0,50 C0,22.3857625 22.3857625,0 50,0 Z M50,10 C27.90861,10 10,27.90861 10,50 C10,72.09139 27.90861,90 50,90 C72.09139,90 90,72.09139 90,50 C90,27.90861 72.09139,10 50,10 Z" fill="#0070D2"></path>
        <rect fill="#0070D2" x="25" y="25" width="50" height="10" rx="2"></rect>
        <rect fill="#16325C" x="25" y="40" width="50" height="20" rx="2"></rect>
        <rect fill="#0070D2" x="25" y="65" width="50" height="10" rx="2"></rect>
    </g>
</svg>