<?xml version="1.0" encoding="UTF-8" standalone="no"?>
<svg width="120px" height="120px" viewBox="0 0 120 120" version="1.1" xmlns="http://www.w3.org/2000/svg" xmlns:xlink="http://www.w3.org/1999/xlink">
    <g stroke="none" stroke-width="1" fill="none" fill-rule="evenodd">
        <path d="M120,108 C120,114.6 114.6,120 108,120 L12,120 C5.4,120 0,114.6 0,108 L0,12 C0,5.4 5.4,0 12,0 L108,0 C114.6,0 120,5.4 120,12 L120,108 L120,108 Z" id="Shape" fill="#22BDC1"/>
        <g transform="translate(24, 24)" fill="#FFFFFF">
            <!-- Header bar -->
            <rect x="0" y="0" width="72" height="12" rx="2"/>
            <!-- Hero section -->
            <rect x="0" y="18" width="72" height="24" rx="2" opacity="0.9"/>
            <!-- Content columns -->
            <rect x="0" y="48" width="33" height="18" rx="2" opacity="0.7"/>
            <rect x="39" y="48" width="33" height="18" rx="2" opacity="0.7"/>
            <!-- FAB circle -->
            <circle cx="62" cy="62" r="10" opacity="1"/>
        </g>
    </g>
</svg> 